<svg width="32" height="32" viewBox="0 0 32 32" fill="none" xmlns="http://www.w3.org/2000/svg">
<g clip-path="url(#clip0_151_7357)">
<path d="M24.8889 0H7.11111C3.184 0 0 3.184 0 7.11111V24.8889C0 28.816 3.184 32 7.11111 32H24.8889C28.816 32 32 28.816 32 24.8889V7.11111C32 3.184 28.816 0 24.8889 0ZM27.2142 19.6053C27.2142 21.5662 25.6267 23.1591 23.6711 23.1591H18.9191L16.3413 26.4089C16.1671 26.6293 15.8329 26.6293 15.6587 26.4089L13.0809 23.1591H8.32889C6.37156 23.1591 4.78756 21.568 4.78756 19.6053V10.1369C4.78756 8.17422 6.37156 6.58133 8.32889 6.58133H23.6711C25.6267 6.58133 27.2142 8.176 27.2142 10.1369V19.6053Z" fill="#666666"/>
<path d="M9.76701 12.7607C9.76701 12.7607 9.15367 12.7607 8.59723 13.3047V11.127H7.22656V16.8461H8.61323V16.3981C8.61323 16.3981 8.94034 16.9901 9.76701 16.9901C9.76701 16.9901 11.7012 16.9172 11.7012 14.8514C11.7012 14.8514 11.6301 12.7625 9.76701 12.7625V12.7607ZM9.46478 15.7794C8.97767 15.7794 8.58301 15.3847 8.58301 14.8994C8.58301 14.4141 8.9759 14.0176 9.46478 14.0176C9.95367 14.0176 10.3466 14.4105 10.3466 14.8994C10.3466 15.3883 9.9519 15.7794 9.46478 15.7794Z" fill="#666666"/>
<path d="M12.1445 10.9951V12.3213C12.1445 12.3213 12.7685 12.2929 12.7685 13.4609V16.8458H14.093V13.148C14.093 13.148 14.1499 10.9969 12.1445 10.9969V10.9951Z" fill="#666666"/>
<path d="M17.3281 12.7803C17.3281 12.7803 15.0579 12.7803 15.0579 14.8976C15.0579 14.8976 14.985 16.9883 17.3281 16.9883C17.3281 16.9883 19.6481 16.9847 19.6481 14.8976C19.6481 14.8976 19.7245 12.7803 17.3281 12.7803ZM17.3299 15.7794C16.841 15.7794 16.4481 15.3847 16.4481 14.8994C16.4481 14.4141 16.841 14.0176 17.3299 14.0176C17.8188 14.0176 18.2116 14.4105 18.2116 14.8994C18.2116 15.3883 17.817 15.7794 17.3299 15.7794Z" fill="#666666"/>
<path d="M23.4369 13.3053C23.4369 13.3053 23.0423 12.7826 22.2831 12.7826C22.2831 12.7826 20.3418 12.6991 20.3418 14.884C20.3418 14.884 20.3205 16.9213 22.2298 16.9213C22.2298 16.9213 23.0085 16.9515 23.4369 16.3969V16.7169C23.4369 16.7169 23.5347 17.7213 22.5623 17.7213H22.2298V18.9373H22.7649C22.7649 18.9373 24.772 18.9586 24.772 16.7933V12.9142H23.4369V13.3035V13.3053ZM22.6174 15.78C22.1303 15.78 21.7356 15.3853 21.7356 14.9C21.7356 14.4146 22.1303 14.0182 22.6174 14.0182C23.1045 14.0182 23.4991 14.4111 23.4991 14.9C23.4991 15.3889 23.1063 15.78 22.6174 15.78Z" fill="#666666"/>
</g>
<defs>
<clipPath id="clip0_151_7357">
<rect width="32" height="32" fill="white"/>
</clipPath>
</defs>
</svg>
