<svg width="32" height="32" viewBox="0 0 32 32" fill="none" xmlns="http://www.w3.org/2000/svg">
<g clip-path="url(#clip0_151_7353)">
<path d="M15.9998 12.0713C10.8016 12.0713 10.8105 19.9255 15.9998 19.9255C21.1892 19.9255 21.1909 12.0713 15.9998 12.0713Z" fill="#666666"/>
<path d="M14.9458 6.33975V6.33619C7.09157 6.34508 6.34668 6.49264 6.34668 15.9931C6.34668 25.4935 6.6169 25.6517 16.0018 25.6517C21.1485 25.6517 25.3369 26.2562 25.5876 20.7557C26.2951 5.20553 25.0133 6.32553 14.944 6.34153L14.9458 6.33975ZM16 22.0482C12.6596 22.0482 9.95201 19.3389 9.95201 15.9984C9.95201 12.658 12.6596 9.94864 16 9.94864C19.3405 9.94864 22.048 12.658 22.048 15.9984C22.048 19.3389 19.3405 22.0482 16 22.0482ZM22.2898 11.122C21.5093 11.122 20.8765 10.4891 20.8765 9.70864C20.8765 8.92819 21.5093 8.2953 22.2898 8.2953C23.0702 8.2953 23.7031 8.92819 23.7031 9.70864C23.7031 10.4891 23.0702 11.122 22.2898 11.122Z" fill="#666666"/>
<path d="M24.8889 0H7.11111C3.184 0 0 3.184 0 7.11111V24.8889C0 28.816 3.184 32 7.11111 32H24.8889C28.816 32 32 28.816 32 24.8889V7.11111C32 3.184 28.816 0 24.8889 0ZM27.1591 23.7156C25.3867 28.2613 20.6204 27.7813 15.9982 27.7813C11.376 27.7813 6.58489 28.2133 4.83911 23.7156C4.12267 21.8738 4.22044 19.0276 4.22044 15.9982C4.22044 12.5476 4.11556 10.1369 4.83911 8.28089C6.59022 3.78667 11.1733 4.21511 16 4.21511C20.4836 4.21511 23.5413 3.93244 25.8009 6.192C28.032 8.42311 27.7796 11.3938 27.7796 15.9964C27.7796 19.4649 27.8862 21.8382 27.1609 23.7138L27.1591 23.7156Z" fill="#666666"/>
</g>
<defs>
<clipPath id="clip0_151_7353">
<rect width="32" height="32" fill="white"/>
</clipPath>
</defs>
</svg>
