<svg width="32" height="32" viewBox="0 0 32 32" fill="none" xmlns="http://www.w3.org/2000/svg">
<g clip-path="url(#clip0_151_7363)">
<path d="M24.8889 0H7.11111C3.184 0 0 3.184 0 7.11111V24.8889C0 28.816 3.184 32 7.11111 32H24.8889C28.816 32 32 28.816 32 24.8889V7.11111C32 3.184 28.816 0 24.8889 0ZM27.264 21.6587C26.9938 22.6702 26.1973 23.4667 25.1858 23.7369C23.3529 24.2293 16.0018 24.2293 16.0018 24.2293C16.0018 24.2293 8.64889 24.2293 6.816 23.7369C5.80444 23.4667 5.008 22.6702 4.736 21.6587C4.24533 19.8258 4.24533 16 4.24533 16C4.24533 16 4.24533 12.1742 4.736 10.3413C5.00622 9.32978 5.80267 8.53333 6.816 8.26311C8.64889 7.77067 16.0018 7.77067 16.0018 7.77067C16.0018 7.77067 23.3529 7.77067 25.1858 8.26311C26.1973 8.53333 26.9938 9.32978 27.264 10.3413C27.7564 12.1742 27.7564 16 27.7564 16C27.7564 16 27.7564 19.8258 27.264 21.6587Z" fill="#666666"/>
<path d="M13.6484 19.5269L19.7569 15.9998L13.6484 12.4727V19.5269Z" fill="#666666"/>
</g>
<defs>
<clipPath id="clip0_151_7363">
<rect width="32" height="32" fill="white"/>
</clipPath>
</defs>
</svg>
