<svg width="14" height="15" viewBox="0 0 14 15" fill="none" xmlns="http://www.w3.org/2000/svg">
<path d="M7 14.5C6.04333 14.5 5.13917 14.3162 4.2875 13.9487C3.43583 13.5812 2.69208 13.0796 2.05625 12.4437C1.42042 11.8079 0.91875 11.0642 0.55125 10.2125C0.18375 9.36083 0 8.45667 0 7.5C0 6.53167 0.18375 5.62458 0.55125 4.77875C0.91875 3.93292 1.42042 3.19208 2.05625 2.55625C2.69208 1.92042 3.43583 1.41875 4.2875 1.05125C5.13917 0.68375 6.04333 0.5 7 0.5C7.96833 0.5 8.87542 0.68375 9.72125 1.05125C10.5671 1.41875 11.3079 1.92042 11.9437 2.55625C12.5796 3.19208 13.0812 3.93292 13.4487 4.77875C13.8162 5.62458 14 6.53167 14 7.5C14 8.45667 13.8162 9.36083 13.4487 10.2125C13.0812 11.0642 12.5796 11.8079 11.9437 12.4437C11.3079 13.0796 10.5671 13.5812 9.72125 13.9487C8.87542 14.3162 7.96833 14.5 7 14.5ZM7 13.065C7.30333 12.645 7.56583 12.2075 7.7875 11.7525C8.00917 11.2975 8.19 10.8133 8.33 10.3H5.67C5.81 10.8133 5.99083 11.2975 6.2125 11.7525C6.43417 12.2075 6.69667 12.645 7 13.065ZM5.18 12.785C4.97 12.4 4.78625 12.0004 4.62875 11.5863C4.47125 11.1721 4.34 10.7433 4.235 10.3H2.17C2.50833 10.8833 2.93125 11.3908 3.43875 11.8225C3.94625 12.2542 4.52667 12.575 5.18 12.785ZM8.82 12.785C9.47333 12.575 10.0538 12.2542 10.5613 11.8225C11.0688 11.3908 11.4917 10.8833 11.83 10.3H9.765C9.66 10.7433 9.52875 11.1721 9.37125 11.5863C9.21375 12.0004 9.03 12.4 8.82 12.785ZM1.575 8.9H3.955C3.92 8.66667 3.89375 8.43625 3.87625 8.20875C3.85875 7.98125 3.85 7.745 3.85 7.5C3.85 7.255 3.85875 7.01875 3.87625 6.79125C3.89375 6.56375 3.92 6.33333 3.955 6.1H1.575C1.51667 6.33333 1.47292 6.56375 1.44375 6.79125C1.41458 7.01875 1.4 7.255 1.4 7.5C1.4 7.745 1.41458 7.98125 1.44375 8.20875C1.47292 8.43625 1.51667 8.66667 1.575 8.9ZM5.355 8.9H8.645C8.68 8.66667 8.70625 8.43625 8.72375 8.20875C8.74125 7.98125 8.75 7.745 8.75 7.5C8.75 7.255 8.74125 7.01875 8.72375 6.79125C8.70625 6.56375 8.68 6.33333 8.645 6.1H5.355C5.32 6.33333 5.29375 6.56375 5.27625 6.79125C5.25875 7.01875 5.25 7.255 5.25 7.5C5.25 7.745 5.25875 7.98125 5.27625 8.20875C5.29375 8.43625 5.32 8.66667 5.355 8.9ZM10.045 8.9H12.425C12.4833 8.66667 12.5271 8.43625 12.5562 8.20875C12.5854 7.98125 12.6 7.745 12.6 7.5C12.6 7.255 12.5854 7.01875 12.5562 6.79125C12.5271 6.56375 12.4833 6.33333 12.425 6.1H10.045C10.08 6.33333 10.1062 6.56375 10.1238 6.79125C10.1413 7.01875 10.15 7.255 10.15 7.5C10.15 7.745 10.1413 7.98125 10.1238 8.20875C10.1062 8.43625 10.08 8.66667 10.045 8.9ZM9.765 4.7H11.83C11.4917 4.11667 11.0688 3.60917 10.5613 3.1775C10.0538 2.74583 9.47333 2.425 8.82 2.215C9.03 2.6 9.21375 2.99958 9.37125 3.41375C9.52875 3.82792 9.66 4.25667 9.765 4.7ZM5.67 4.7H8.33C8.19 4.18667 8.00917 3.7025 7.7875 3.2475C7.56583 2.7925 7.30333 2.355 7 1.935C6.69667 2.355 6.43417 2.7925 6.2125 3.2475C5.99083 3.7025 5.81 4.18667 5.67 4.7ZM2.17 4.7H4.235C4.34 4.25667 4.47125 3.82792 4.62875 3.41375C4.78625 2.99958 4.97 2.6 5.18 2.215C4.52667 2.425 3.94625 2.74583 3.43875 3.1775C2.93125 3.60917 2.50833 4.11667 2.17 4.7Z" fill="#CCCCCC"/>
</svg>
