<svg width="593" height="440" viewBox="0 0 593 440" fill="none" xmlns="http://www.w3.org/2000/svg">
<g opacity="0.05" clip-path="url(#clip0_231_880)">
<path d="M689.693 398.26L724.98 362.805L433.833 70.2721L398.545 105.727L689.693 398.26Z" fill="white"/>
<path d="M619.115 469.162L654.402 433.707L363.254 141.174L327.967 176.63L619.115 469.162Z" fill="white"/>
<path d="M548.549 540.075L583.836 504.62L292.688 212.088L257.401 247.543L548.549 540.075Z" fill="white"/>
<path opacity="0.5" d="M141.225 506.17L176.513 541.625L363.349 353.9L328.061 318.445L141.225 506.17Z" fill="white"/>
<path opacity="0.3" d="M257.346 247.68L202.346 302.941L237.633 338.397L292.633 283.135L257.346 247.68Z" fill="white"/>
<path opacity="0.3" d="M327.9 318.6L272.9 373.861L308.188 409.316L363.188 354.055L327.9 318.6Z" fill="white"/>
<path opacity="0.5" d="M70.659 435.255L105.946 470.71L292.782 282.985L257.495 247.53L70.659 435.255Z" fill="white"/>
<path opacity="0.5" d="M0.00466805 364.269L35.292 399.725L397.844 35.4478L362.557 -0.00740096L0.00466805 364.269Z" fill="white"/>
</g>
<defs>
<clipPath id="clip0_231_880">
<rect width="593" height="440" fill="white"/>
</clipPath>
</defs>
</svg>
